<?xml version="1.0" encoding="UTF-8" standalone="no"?>
<!DOCTYPE svg PUBLIC "-//W3C//DTD SVG 1.1//EN"
 "http://www.w3.org/Graphics/SVG/1.1/DTD/svg11.dtd">
<!-- Generated by graphviz version 9.0.0 (20230911.1827)
 -->
<!-- Title: G Pages: 1 -->
<svg width="1470pt" height="211pt"
 viewBox="0.00 0.00 1469.50 210.50" xmlns="http://www.w3.org/2000/svg" xmlns:xlink="http://www.w3.org/1999/xlink">
<g id="graph0" class="graph" transform="scale(1 1) rotate(0) translate(4 206.5)">
<title>G</title>
<polygon fill="white" stroke="none" points="-4,4 -4,-206.5 1465.5,-206.5 1465.5,4 -4,4"/>
<!-- E0 -->
<g id="node1" class="node">
<title>E0</title>
<polygon fill="#000000" stroke="black" points="209.5,-39.5 0,-39.5 0,0 209.5,0 209.5,-39.5"/>
<text text-anchor="middle" x="104.75" y="-22.2" font-family="Times New Roman,serif" font-size="14.00" fill="#ffffff">&#39;mouseenter&#39; on &#39;#bottone1ID&#39;</text>
<text text-anchor="middle" x="104.75" y="-6.45" font-family="Times New Roman,serif" font-size="14.00" fill="#ffffff">(/html[1]/body[1]/div[1]/button[1])</text>
</g>
<!-- 1 -->
<g id="node3" class="node">
<title>1</title>
<ellipse fill="none" stroke="black" cx="272.5" cy="-43.75" rx="27" ry="18"/>
<text text-anchor="middle" x="272.5" y="-38.33" font-family="Times New Roman,serif" font-size="14.00">1</text>
</g>
<!-- E0&#45;&gt;1 -->
<g id="edge2" class="edge">
<title>E0&#45;&gt;1</title>
<path fill="none" stroke="black" d="M209.56,-32.62C209.56,-32.62 239.18,-32.62 239.18,-32.62"/>
<polygon fill="black" stroke="black" points="239.18,-36.13 249.18,-32.63 239.18,-29.13 239.18,-36.13"/>
</g>
<!-- 0 -->
<g id="node2" class="node">
<title>0</title>
<ellipse fill="none" stroke="black" cx="1434.5" cy="-33.75" rx="27" ry="18"/>
<text text-anchor="middle" x="1434.5" y="-28.32" font-family="Times New Roman,serif" font-size="14.00">0</text>
</g>
<!-- 0&#45;&gt;E0 -->
<g id="edge1" class="edge">
<title>0&#45;&gt;E0</title>
<path fill="none" stroke="black" d="M1416.71,-19.88C1416.71,-19.88 220.46,-19.88 220.46,-19.88"/>
<polygon fill="black" stroke="black" points="210.46,-23.88 210.46,-15.88 218.46,-15.88 218.46,-23.88 210.46,-23.88"/>
<polyline fill="none" stroke="black" points="218.46,-19.88 220.46,-19.88"/>
</g>
<!-- E1 -->
<g id="node4" class="node">
<title>E1</title>
<polygon fill="#000000" stroke="black" points="545,-125.5 335.5,-125.5 335.5,-86 545,-86 545,-125.5"/>
<text text-anchor="middle" x="440.25" y="-108.2" font-family="Times New Roman,serif" font-size="14.00" fill="#ffffff">&#39;click&#39; on &#39;#bottone1ID&#39;</text>
<text text-anchor="middle" x="440.25" y="-92.45" font-family="Times New Roman,serif" font-size="14.00" fill="#ffffff">(/html[1]/body[1]/div[1]/button[1])</text>
</g>
<!-- 1&#45;&gt;E1 -->
<g id="edge3" class="edge">
<title>1&#45;&gt;E1</title>
<path fill="none" stroke="black" d="M272.5,-62.02C272.5,-80.31 272.5,-105.75 272.5,-105.75 272.5,-105.75 324.94,-105.75 324.94,-105.75"/>
<polygon fill="black" stroke="black" points="334.94,-101.75 334.94,-109.75 326.94,-109.75 326.94,-101.75 334.94,-101.75"/>
<polyline fill="none" stroke="black" points="326.94,-105.75 324.94,-105.75"/>
</g>
<!-- E2 -->
<g id="node6" class="node">
<title>E2</title>
<polygon fill="#000000" stroke="black" points="790.5,-63.5 581,-63.5 581,-24 790.5,-24 790.5,-63.5"/>
<text text-anchor="middle" x="685.75" y="-46.2" font-family="Times New Roman,serif" font-size="14.00" fill="#ffffff">&#39;mouseleave&#39; on &#39;#bottone1ID&#39;</text>
<text text-anchor="middle" x="685.75" y="-30.45" font-family="Times New Roman,serif" font-size="14.00" fill="#ffffff">(/html[1]/body[1]/div[1]/button[1])</text>
</g>
<!-- 1&#45;&gt;E2 -->
<g id="edge5" class="edge">
<title>1&#45;&gt;E2</title>
<path fill="none" stroke="black" d="M299.93,-43.75C299.93,-43.75 570.38,-43.75 570.38,-43.75"/>
<polygon fill="black" stroke="black" points="580.38,-39.75 580.38,-47.75 572.38,-47.75 572.38,-39.75 580.38,-39.75"/>
<polyline fill="none" stroke="black" points="572.38,-43.75 570.38,-43.75"/>
</g>
<!-- 2 -->
<g id="node5" class="node">
<title>2</title>
<ellipse fill="none" stroke="black" cx="685.75" cy="-124.75" rx="27" ry="18"/>
<text text-anchor="middle" x="685.75" y="-119.33" font-family="Times New Roman,serif" font-size="14.00">2</text>
</g>
<!-- E1&#45;&gt;2 -->
<g id="edge4" class="edge">
<title>E1&#45;&gt;2</title>
<path fill="none" stroke="black" d="M545.43,-116.12C545.43,-116.12 649.93,-116.12 649.93,-116.12"/>
<polygon fill="black" stroke="black" points="649.93,-119.63 659.93,-116.13 649.93,-112.63 649.93,-119.63"/>
</g>
<!-- E3 -->
<g id="node7" class="node">
<title>E3</title>
<polygon fill="#000000" stroke="black" points="1036,-202.5 826.5,-202.5 826.5,-163 1036,-163 1036,-202.5"/>
<text text-anchor="middle" x="931.25" y="-185.2" font-family="Times New Roman,serif" font-size="14.00" fill="#ffffff">&#39;click&#39; on &#39;#bottone1ID&#39;</text>
<text text-anchor="middle" x="931.25" y="-169.45" font-family="Times New Roman,serif" font-size="14.00" fill="#ffffff">(/html[1]/body[1]/div[1]/button[1])</text>
</g>
<!-- 2&#45;&gt;E3 -->
<g id="edge7" class="edge">
<title>2&#45;&gt;E3</title>
<path fill="none" stroke="black" d="M695.5,-141.87C695.5,-156.83 695.5,-176.17 695.5,-176.17 695.5,-176.17 815.63,-176.17 815.63,-176.17"/>
<polygon fill="black" stroke="black" points="825.63,-172.17 825.63,-180.17 817.63,-180.17 817.63,-172.17 825.63,-172.17"/>
<polyline fill="none" stroke="black" points="817.63,-176.17 815.63,-176.17"/>
</g>
<!-- E4 -->
<g id="node8" class="node">
<title>E4</title>
<polygon fill="#000000" stroke="black" points="1036,-144.5 826.5,-144.5 826.5,-105 1036,-105 1036,-144.5"/>
<text text-anchor="middle" x="931.25" y="-127.2" font-family="Times New Roman,serif" font-size="14.00" fill="#ffffff">&#39;mouseleave&#39; on &#39;#bottone1ID&#39;</text>
<text text-anchor="middle" x="931.25" y="-111.45" font-family="Times New Roman,serif" font-size="14.00" fill="#ffffff">(/html[1]/body[1]/div[1]/button[1])</text>
</g>
<!-- 2&#45;&gt;E4 -->
<g id="edge9" class="edge">
<title>2&#45;&gt;E4</title>
<path fill="none" stroke="black" d="M712.96,-124.75C712.96,-124.75 815.53,-124.75 815.53,-124.75"/>
<polygon fill="black" stroke="black" points="825.53,-120.75 825.53,-128.75 817.53,-128.75 817.53,-120.75 825.53,-120.75"/>
<polyline fill="none" stroke="black" points="817.53,-124.75 815.53,-124.75"/>
</g>
<!-- E2&#45;&gt;0 -->
<g id="edge6" class="edge">
<title>E2&#45;&gt;0</title>
<path fill="none" stroke="black" d="M790.65,-37.88C790.65,-37.88 1396.24,-37.88 1396.24,-37.88"/>
<polygon fill="black" stroke="black" points="1396.24,-41.38 1406.24,-37.88 1396.24,-34.38 1396.24,-41.38"/>
</g>
<!-- E3&#45;&gt;2 -->
<g id="edge8" class="edge">
<title>E3&#45;&gt;2</title>
<path fill="none" stroke="black" d="M826.21,-189.33C756.4,-189.33 677.5,-189.33 677.5,-189.33 677.5,-189.33 677.5,-153.91 677.5,-153.91"/>
<polygon fill="black" stroke="black" points="681,-153.91 677.5,-143.91 674,-153.91 681,-153.91"/>
</g>
<!-- 3 -->
<g id="node9" class="node">
<title>3</title>
<ellipse fill="none" stroke="black" cx="1099" cy="-124.75" rx="27" ry="18"/>
<text text-anchor="middle" x="1099" y="-119.33" font-family="Times New Roman,serif" font-size="14.00">3</text>
</g>
<!-- E4&#45;&gt;3 -->
<g id="edge10" class="edge">
<title>E4&#45;&gt;3</title>
<path fill="none" stroke="black" d="M1036.06,-124.75C1036.06,-124.75 1059.99,-124.75 1059.99,-124.75"/>
<polygon fill="black" stroke="black" points="1059.99,-128.25 1069.99,-124.75 1059.99,-121.25 1059.99,-128.25"/>
</g>
<!-- E5 -->
<g id="node10" class="node">
<title>E5</title>
<polygon fill="#000000" stroke="black" points="1371.5,-101.5 1162,-101.5 1162,-62 1371.5,-62 1371.5,-101.5"/>
<text text-anchor="middle" x="1266.75" y="-84.2" font-family="Times New Roman,serif" font-size="14.00" fill="#ffffff">&#39;mouseenter&#39; on &#39;#bottone1ID&#39;</text>
<text text-anchor="middle" x="1266.75" y="-68.45" font-family="Times New Roman,serif" font-size="14.00" fill="#ffffff">(/html[1]/body[1]/div[1]/button[1])</text>
</g>
<!-- 3&#45;&gt;E5 -->
<g id="edge11" class="edge">
<title>3&#45;&gt;E5</title>
<path fill="none" stroke="black" d="M1099.5,-106.27C1099.5,-100.84 1099.5,-96.33 1099.5,-96.33 1099.5,-96.33 1151.28,-96.33 1151.28,-96.33"/>
<polygon fill="black" stroke="black" points="1161.28,-92.33 1161.28,-100.33 1153.28,-100.33 1153.28,-92.33 1161.28,-92.33"/>
<polyline fill="none" stroke="black" points="1153.28,-96.33 1151.28,-96.33"/>
</g>
<!-- E6 -->
<g id="node11" class="node">
<title>E6</title>
<polygon fill="#000000" stroke="black" points="1371.5,-159.5 1162,-159.5 1162,-120 1371.5,-120 1371.5,-159.5"/>
<text text-anchor="middle" x="1266.75" y="-142.2" font-family="Times New Roman,serif" font-size="14.00" fill="#ffffff">&#39;click&#39; on &#39;#bottone2ID&#39;</text>
<text text-anchor="middle" x="1266.75" y="-126.45" font-family="Times New Roman,serif" font-size="14.00" fill="#ffffff">(/html[1]/body[1]/div[1]/button[2])</text>
</g>
<!-- 3&#45;&gt;E6 -->
<g id="edge13" class="edge">
<title>3&#45;&gt;E6</title>
<path fill="none" stroke="black" d="M1124.48,-131.38C1124.48,-131.38 1151.3,-131.38 1151.3,-131.38"/>
<polygon fill="black" stroke="black" points="1161.3,-127.38 1161.3,-135.38 1153.3,-135.38 1153.3,-127.38 1161.3,-127.38"/>
<polyline fill="none" stroke="black" points="1153.3,-131.38 1151.3,-131.38"/>
</g>
<!-- E5&#45;&gt;2 -->
<g id="edge12" class="edge">
<title>E5&#45;&gt;2</title>
<path fill="none" stroke="black" d="M1161.67,-91.17C994.46,-91.17 686.5,-91.17 686.5,-91.17 686.5,-91.17 686.5,-94.87 686.5,-94.87"/>
<polygon fill="black" stroke="black" points="683,-94.87 686.5,-104.87 690,-94.87 683,-94.87"/>
</g>
<!-- E6&#45;&gt;0 -->
<g id="edge14" class="edge">
<title>E6&#45;&gt;0</title>
<path fill="none" stroke="black" d="M1371.56,-139.75C1405.47,-139.75 1434.5,-139.75 1434.5,-139.75 1434.5,-139.75 1434.5,-63.73 1434.5,-63.73"/>
<polygon fill="black" stroke="black" points="1438,-63.73 1434.5,-53.73 1431,-63.73 1438,-63.73"/>
</g>
</g>
</svg>
