<?xml version="1.0" encoding="UTF-8" standalone="no"?>
<!DOCTYPE svg PUBLIC "-//W3C//DTD SVG 1.1//EN"
 "http://www.w3.org/Graphics/SVG/1.1/DTD/svg11.dtd">
<!-- Generated by graphviz version 2.40.1 (20161225.0304)
 -->
<!-- Title: G Pages: 1 -->
<svg width="1462pt" height="206pt"
 viewBox="0.00 0.00 1462.00 206.00" xmlns="http://www.w3.org/2000/svg" xmlns:xlink="http://www.w3.org/1999/xlink">
<g id="graph0" class="graph" transform="scale(1 1) rotate(0) translate(4 202)">
<title>G</title>
<polygon fill="#ffffff" stroke="transparent" points="-4,4 -4,-202 1458,-202 1458,4 -4,4"/>
<!-- E0 -->
<g id="node1" class="node">
<title>E0</title>
<polygon id="svg_edge_id_E0" id="svg_edge_id_E0" id="svg_edge_id_E0" fill="#000000" stroke="#000000" points="208,-38 0,-38 0,0 208,0 208,-38"/>
<text text-anchor="middle" x="104" y="-22.8" font-family="Times,serif" font-size="14.00" fill="#ffffff">&#39;mouseenter&#39; on &#39;#bottone1ID&#39;</text>
<text text-anchor="middle" x="104" y="-7.8" font-family="Times,serif" font-size="14.00" fill="#ffffff">(/html[1]/body[1]/div[1]/button[1])</text>
</g>
<!-- 1 -->
<g id="node3" class="node">
<title>1</title>
<ellipse id="svg_node_id_1" id="svg_node_id_1" id="svg_node_id_1" fill="none" stroke="#000000" cx="271" cy="-43" rx="27" ry="18"/>
<text text-anchor="middle" x="271" y="-39.3" font-family="Times,serif" font-size="14.00" fill="#000000">1</text>
</g>
<!-- E0&#45;&gt;1 -->
<g id="edge2" class="edge">
<title>E0&#45;&gt;1</title>
<path fill="none" stroke="#000000" d="M208.3402,-31.5C208.3402,-31.5 240.1344,-31.5 240.1344,-31.5"/>
<polygon fill="#000000" stroke="#000000" points="240.1344,-35.0001 250.1344,-31.5 240.1343,-28.0001 240.1344,-35.0001"/>
</g>
<!-- 0 -->
<g id="node2" class="node">
<title>0</title>
<ellipse id="svg_node_id_0" id="svg_node_id_0" id="svg_node_id_0" fill="none" stroke="#000000" cx="1427" cy="-34" rx="27" ry="18"/>
<text text-anchor="middle" x="1427" y="-30.3" font-family="Times,serif" font-size="14.00" fill="#000000">0</text>
</g>
<!-- 0&#45;&gt;E0 -->
<g id="edge1" class="edge">
<title>0&#45;&gt;E0</title>
<path fill="none" stroke="#000000" d="M1409.7885,-20C1409.7885,-20 218.1058,-20 218.1058,-20"/>
<polygon fill="#000000" stroke="#000000" points="208.1057,-24 208.1058,-16 216.1058,-16.0001 216.1057,-24.0001 208.1057,-24"/>
<polyline fill="none" stroke="#000000" points="216.1058,-20.0001 218.1058,-20.0001 "/>
</g>
<!-- E1 -->
<g id="node4" class="node">
<title>E1</title>
<polygon id="svg_edge_id_E1" id="svg_edge_id_E1" id="svg_edge_id_E1" fill="#000000" stroke="#000000" points="542,-125 334,-125 334,-87 542,-87 542,-125"/>
<text text-anchor="middle" x="438" y="-109.8" font-family="Times,serif" font-size="14.00" fill="#ffffff">&#39;click&#39; on &#39;#bottone1ID&#39;</text>
<text text-anchor="middle" x="438" y="-94.8" font-family="Times,serif" font-size="14.00" fill="#ffffff">(/html[1]/body[1]/div[1]/button[1])</text>
</g>
<!-- 1&#45;&gt;E1 -->
<g id="edge3" class="edge">
<title>1&#45;&gt;E1</title>
<path fill="none" stroke="#000000" d="M271,-61.2222C271,-79.8285 271,-106 271,-106 271,-106 323.6598,-106 323.6598,-106"/>
<polygon fill="#000000" stroke="#000000" points="333.6597,-102 333.6598,-110 325.6598,-110.0001 325.6597,-102.0001 333.6597,-102"/>
<polyline fill="none" stroke="#000000" points="325.6598,-106.0001 323.6598,-106.0001 "/>
</g>
<!-- E2 -->
<g id="node6" class="node">
<title>E2</title>
<polygon id="svg_edge_id_E2" id="svg_edge_id_E2" id="svg_edge_id_E2" fill="#000000" stroke="#000000" points="786,-62 578,-62 578,-24 786,-24 786,-62"/>
<text text-anchor="middle" x="682" y="-46.8" font-family="Times,serif" font-size="14.00" fill="#ffffff">&#39;mouseleave&#39; on &#39;#bottone1ID&#39;</text>
<text text-anchor="middle" x="682" y="-31.8" font-family="Times,serif" font-size="14.00" fill="#ffffff">(/html[1]/body[1]/div[1]/button[1])</text>
</g>
<!-- 1&#45;&gt;E2 -->
<g id="edge5" class="edge">
<title>1&#45;&gt;E2</title>
<path fill="none" stroke="#000000" d="M298.2852,-43C298.2852,-43 567.6979,-43 567.6979,-43"/>
<polygon fill="#000000" stroke="#000000" points="577.6978,-39 577.6979,-47 569.6979,-47.0001 569.6978,-39.0001 577.6978,-39"/>
<polyline fill="none" stroke="#000000" points="569.6979,-43.0001 567.6979,-43.0001 "/>
</g>
<!-- 2 -->
<g id="node5" class="node">
<title>2</title>
<ellipse id="svg_node_id_2" id="svg_node_id_2" id="svg_node_id_2" fill="none" stroke="#000000" cx="682" cy="-123" rx="27" ry="18"/>
<text text-anchor="middle" x="682" y="-119.3" font-family="Times,serif" font-size="14.00" fill="#000000">2</text>
</g>
<!-- E1&#45;&gt;2 -->
<g id="edge4" class="edge">
<title>E1&#45;&gt;2</title>
<path fill="none" stroke="#000000" d="M542.1857,-115C542.1857,-115 647.7632,-115 647.7632,-115"/>
<polygon fill="#000000" stroke="#000000" points="647.7632,-118.5001 657.7632,-115 647.7632,-111.5001 647.7632,-118.5001"/>
</g>
<!-- E3 -->
<g id="node7" class="node">
<title>E3</title>
<polygon id="svg_edge_id_E3" id="svg_edge_id_E3" id="svg_edge_id_E3" fill="#000000" stroke="#000000" points="1030,-198 822,-198 822,-160 1030,-160 1030,-198"/>
<text text-anchor="middle" x="926" y="-182.8" font-family="Times,serif" font-size="14.00" fill="#ffffff">&#39;click&#39; on &#39;#bottone1ID&#39;</text>
<text text-anchor="middle" x="926" y="-167.8" font-family="Times,serif" font-size="14.00" fill="#ffffff">(/html[1]/body[1]/div[1]/button[1])</text>
</g>
<!-- 2&#45;&gt;E3 -->
<g id="edge7" class="edge">
<title>2&#45;&gt;E3</title>
<path fill="none" stroke="#000000" d="M673,-140.0329C673,-158.4886 673,-185.3333 673,-185.3333 673,-185.3333 812,-185.3333 812,-185.3333"/>
<polygon fill="#000000" stroke="#000000" points="821.9999,-181.3333 822,-189.3333 814,-189.3334 813.9999,-181.3334 821.9999,-181.3333"/>
<polyline fill="none" stroke="#000000" points="814,-185.3334 812,-185.3334 "/>
</g>
<!-- E4 -->
<g id="node8" class="node">
<title>E4</title>
<polygon id="svg_edge_id_E4" id="svg_edge_id_E4" id="svg_edge_id_E4" fill="#000000" stroke="#000000" points="1030,-142 822,-142 822,-104 1030,-104 1030,-142"/>
<text text-anchor="middle" x="926" y="-126.8" font-family="Times,serif" font-size="14.00" fill="#ffffff">&#39;mouseleave&#39; on &#39;#bottone1ID&#39;</text>
<text text-anchor="middle" x="926" y="-111.8" font-family="Times,serif" font-size="14.00" fill="#ffffff">(/html[1]/body[1]/div[1]/button[1])</text>
</g>
<!-- 2&#45;&gt;E4 -->
<g id="edge9" class="edge">
<title>2&#45;&gt;E4</title>
<path fill="none" stroke="#000000" d="M709.0445,-123C709.0445,-123 811.9885,-123 811.9885,-123"/>
<polygon fill="#000000" stroke="#000000" points="821.9885,-119 821.9885,-127 813.9885,-127.0001 813.9885,-119.0001 821.9885,-119"/>
<polyline fill="none" stroke="#000000" points="813.9885,-123.0001 811.9885,-123.0001 "/>
</g>
<!-- E2&#45;&gt;0 -->
<g id="edge6" class="edge">
<title>E2&#45;&gt;0</title>
<path fill="none" stroke="#000000" d="M786.3735,-38C786.3735,-38 1390.3856,-38 1390.3856,-38"/>
<polygon fill="#000000" stroke="#000000" points="1390.3857,-41.5001 1400.3856,-38 1390.3856,-34.5001 1390.3857,-41.5001"/>
</g>
<!-- E3&#45;&gt;2 -->
<g id="edge8" class="edge">
<title>E3&#45;&gt;2</title>
<path fill="none" stroke="#000000" d="M821.8993,-172.6667C759.0411,-172.6667 691,-172.6667 691,-172.6667 691,-172.6667 691,-150.0924 691,-150.0924"/>
<polygon fill="#000000" stroke="#000000" points="694.5001,-150.0924 691,-140.0924 687.5001,-150.0925 694.5001,-150.0924"/>
</g>
<!-- 3 -->
<g id="node9" class="node">
<title>3</title>
<ellipse id="svg_node_id_3" id="svg_node_id_3" id="svg_node_id_3" fill="none" stroke="#000000" cx="1093" cy="-123" rx="27" ry="18"/>
<text text-anchor="middle" x="1093" y="-119.3" font-family="Times,serif" font-size="14.00" fill="#000000">3</text>
</g>
<!-- E4&#45;&gt;3 -->
<g id="edge10" class="edge">
<title>E4&#45;&gt;3</title>
<path fill="none" stroke="#000000" d="M1030.3402,-123C1030.3402,-123 1055.935,-123 1055.935,-123"/>
<polygon fill="#000000" stroke="#000000" points="1055.9351,-126.5001 1065.935,-123 1055.935,-119.5001 1055.9351,-126.5001"/>
</g>
<!-- E5 -->
<g id="node10" class="node">
<title>E5</title>
<polygon id="svg_edge_id_E5" id="svg_edge_id_E5" id="svg_edge_id_E5" fill="#000000" stroke="#000000" points="1364,-100 1156,-100 1156,-62 1364,-62 1364,-100"/>
<text text-anchor="middle" x="1260" y="-84.8" font-family="Times,serif" font-size="14.00" fill="#ffffff">&#39;mouseenter&#39; on &#39;#bottone1ID&#39;</text>
<text text-anchor="middle" x="1260" y="-69.8" font-family="Times,serif" font-size="14.00" fill="#ffffff">(/html[1]/body[1]/div[1]/button[1])</text>
</g>
<!-- 3&#45;&gt;E5 -->
<g id="edge11" class="edge">
<title>3&#45;&gt;E5</title>
<path fill="none" stroke="#000000" d="M1093,-104.9205C1093,-99.8374 1093,-95.6667 1093,-95.6667 1093,-95.6667 1145.6598,-95.6667 1145.6598,-95.6667"/>
<polygon fill="#000000" stroke="#000000" points="1155.6597,-91.6667 1155.6598,-99.6667 1147.6598,-99.6667 1147.6597,-91.6667 1155.6597,-91.6667"/>
<polyline fill="none" stroke="#000000" points="1147.6598,-95.6667 1145.6598,-95.6668 "/>
</g>
<!-- E6 -->
<g id="node11" class="node">
<title>E6</title>
<polygon id="svg_edge_id_E6" id="svg_edge_id_E6" id="svg_edge_id_E6" fill="#000000" stroke="#000000" points="1364,-156 1156,-156 1156,-118 1364,-118 1364,-156"/>
<text text-anchor="middle" x="1260" y="-140.8" font-family="Times,serif" font-size="14.00" fill="#ffffff">&#39;click&#39; on &#39;#bottone2ID&#39;</text>
<text text-anchor="middle" x="1260" y="-125.8" font-family="Times,serif" font-size="14.00" fill="#ffffff">(/html[1]/body[1]/div[1]/button[2])</text>
</g>
<!-- 3&#45;&gt;E6 -->
<g id="edge13" class="edge">
<title>3&#45;&gt;E6</title>
<path fill="none" stroke="#000000" d="M1118.3637,-129.5C1118.3637,-129.5 1145.8753,-129.5 1145.8753,-129.5"/>
<polygon fill="#000000" stroke="#000000" points="1155.8752,-125.5 1155.8753,-133.5 1147.8753,-133.5001 1147.8752,-125.5001 1155.8752,-125.5"/>
<polyline fill="none" stroke="#000000" points="1147.8753,-129.5001 1145.8753,-129.5001 "/>
</g>
<!-- E5&#45;&gt;2 -->
<g id="edge12" class="edge">
<title>E5&#45;&gt;2</title>
<path fill="none" stroke="#000000" d="M1155.9976,-91.3333C989.5878,-91.3333 682,-91.3333 682,-91.3333 682,-91.3333 682,-94.9466 682,-94.9466"/>
<polygon fill="#000000" stroke="#000000" points="678.5001,-94.9466 682,-104.9466 685.5001,-94.9467 678.5001,-94.9466"/>
</g>
<!-- E6&#45;&gt;0 -->
<g id="edge14" class="edge">
<title>E6&#45;&gt;0</title>
<path fill="none" stroke="#000000" d="M1364.3402,-137C1398.0975,-137 1427,-137 1427,-137 1427,-137 1427,-62.4143 1427,-62.4143"/>
<polygon fill="#000000" stroke="#000000" points="1430.5001,-62.4143 1427,-52.4143 1423.5001,-62.4144 1430.5001,-62.4143"/>
</g>
</g>
</svg>